<svg xmlns="http://www.w3.org/2000/svg" width="128" height="82" viewBox="0 0 128 82" fill="none">
  <defs>
    <filter id="cast" x="-20%" y="-22%" width="145%" height="160%">
      <feDropShadow dx="0" dy="2.8" stdDeviation="1.35" flood-color="#202124" flood-opacity=".58"/>
      <feDropShadow dx="0" dy="0" stdDeviation="1.05" flood-color="#ffffff" flood-opacity=".86"/>
    </filter>
  </defs>
  <ellipse cx="64" cy="68.5" rx="43" ry="5.2" fill="#202124" opacity=".18"/>
  <g filter="url(#cast)" stroke="#fff" stroke-width="6.4" stroke-linecap="round" stroke-linejoin="round">
    <path fill="#8f9296" d="M28 35 H100 V65 H28 Z"/>
    <path fill="#c4c7cb" d="M28 35 L42 21 H114 L100 35 Z"/>
    <path fill="#a7aaae" d="M100 35 L114 21 V51 L100 65 Z"/>
      <path fill="#70757a" d="M21 35 L64 17 L107 35 Z"/>
      <path fill="#c4c7cb" d="M33 43 H45 V64 H33 Z M58 43 H70 V64 H58 Z M83 43 H95 V64 H83 Z"/>
  </g>
  <g stroke="#5f6368" stroke-width="2.15" stroke-linecap="round" stroke-linejoin="round" opacity=".78">
    <path d="M31 39 H97"/><path d="M31 49 H99"/><path d="M47 33 V62"/><path d="M80 34 V62"/>
  </g>
</svg>
